<svg width="34" height="34" viewBox="0 0 34 34" fill="none" xmlns="http://www.w3.org/2000/svg">
<g clip-path="url(#clip0_156_99)">
<path d="M16.4323 26.4627C16.2622 26.293 16.0317 26.1977 15.7914 26.1977C15.5511 26.1977 15.3206 26.293 15.1505 26.4627L10.8821 30.728L10.351 30.1969L16.0745 24.4812C16.2446 24.3112 16.3402 24.0806 16.3403 23.8401C16.3404 23.5996 16.245 23.3689 16.075 23.1988C15.905 23.0287 15.6744 22.9331 15.4339 22.933C15.1934 22.9329 14.9627 23.0283 14.7926 23.1983L9.07072 28.915L8.54066 28.385L15.1974 21.7339C15.3561 21.5619 15.4422 21.3351 15.4377 21.1011C15.4331 20.867 15.3382 20.6438 15.1728 20.4781C15.0075 20.3124 14.7844 20.2171 14.5504 20.212C14.3164 20.207 14.0894 20.2926 13.9171 20.451L7.25933 27.1016L6.72927 26.5705L11.9536 21.3503C12.1122 21.1781 12.1981 20.9513 12.1933 20.7173C12.1886 20.4832 12.0935 20.2601 11.928 20.0945C11.7625 19.929 11.5394 19.8338 11.3054 19.8289C11.0713 19.8241 10.8445 19.9099 10.6723 20.0684L3.95108 26.7767C3.94503 25.8191 3.94176 24.8614 3.94128 23.9037C3.94128 22.4383 2.08967 22.2212 1.99738 22.3233C1.90714 22.4295 0.983658 32.6059 0.983658 32.6059H11.5808L12.1712 32.0155L12.1634 32.0088L16.4333 27.7425C16.6031 27.5724 16.6985 27.342 16.6986 27.1017C16.6987 26.8614 16.6035 26.6308 16.4338 26.4607L16.4323 26.4627Z" fill="url(#paint0_linear_156_99)"/>
<path d="M21.2003 1.51211C15.8419 1.51211 10.9048 5.53193 9.8756 9.95857C9.64512 10.9455 9.38731 13.5153 9.38731 13.5153L6.9252 19.7204C6.86403 19.8651 6.83966 20.0227 6.85429 20.1791C6.86891 20.3355 6.92206 20.4859 7.00899 20.6167C7.09592 20.7476 7.21392 20.8549 7.35244 20.929C7.49097 21.0031 7.64569 21.0417 7.80279 21.0414H8.64326L10.1442 19.5415C10.3553 19.3301 10.6198 19.18 10.9094 19.1071C11.1991 19.0343 11.5031 19.0414 11.789 19.1278C12.075 19.2142 12.3321 19.3766 12.5329 19.5976C12.7338 19.8187 12.8709 20.0901 12.9297 20.383L13.3891 19.9241C13.6968 19.6249 14.1091 19.4574 14.5383 19.4572C14.9675 19.4569 15.3799 19.624 15.688 19.9228C15.996 20.2216 16.1756 20.6287 16.1884 21.0578C16.2013 21.4868 16.0465 21.9039 15.7568 22.2206C16.0498 22.2794 16.3213 22.4166 16.5425 22.6175C16.7637 22.8184 16.9262 23.0756 17.0129 23.3615C17.0995 23.6475 17.1069 23.9516 17.0344 24.2415C16.9618 24.5314 16.812 24.7961 16.6009 25.0076L16.1214 25.4861C16.4287 25.5485 16.7216 25.6975 16.9593 25.9352C17.2691 26.2451 17.4431 26.6654 17.4431 27.1036C17.4431 27.5418 17.2691 27.9621 16.9593 28.272L15.8945 29.3352V32.6069H28.5V22.5898C31.2441 20.4319 33.0122 17.0773 33.0122 13.3137C33.0122 6.79418 27.7265 1.5116 21.2003 1.5116V1.51211ZM12.2959 15.8723C12.1229 15.8724 11.9516 15.8385 11.7917 15.7725C11.6318 15.7064 11.4865 15.6095 11.364 15.4873C11.1167 15.2405 10.9776 14.9055 10.9772 14.5561C10.9769 14.2067 11.1154 13.8715 11.3622 13.6242C11.609 13.3769 11.944 13.2378 12.2934 13.2374C12.6428 13.2371 12.978 13.3756 13.2253 13.6224C13.4726 13.8692 13.6117 14.2042 13.6121 14.5536C13.6124 14.903 13.474 15.2382 13.2271 15.4855C12.9803 15.7328 12.6453 15.8719 12.2959 15.8723ZM18.4608 18.9418C18.7897 18.9418 19.062 19.2115 19.062 19.5394C19.062 19.8715 18.7897 20.1391 18.4608 20.1391C18.3801 20.1424 18.2995 20.1294 18.224 20.1008C18.1484 20.0723 18.0794 20.0287 18.0211 19.9728C17.9628 19.9169 17.9165 19.8497 17.8848 19.7754C17.8531 19.7011 17.8368 19.6212 17.8368 19.5404C17.8368 19.4597 17.8531 19.3797 17.8848 19.3054C17.9165 19.2311 17.9628 19.164 18.0211 19.1081C18.0794 19.0521 18.1484 19.0086 18.224 18.98C18.2995 18.9514 18.3801 18.9384 18.4608 18.9418ZM18.1029 22.6899C18.0241 22.6897 17.9461 22.6741 17.8733 22.6438C17.8005 22.6135 17.7345 22.5692 17.6788 22.5133C17.6232 22.4575 17.5791 22.3913 17.5491 22.3184C17.519 22.2455 17.5036 22.1675 17.5038 22.0886C17.5039 22.0098 17.5196 21.9318 17.5498 21.859C17.5801 21.7863 17.6245 21.7202 17.6803 21.6646C17.7361 21.6089 17.8023 21.5648 17.8752 21.5348C17.9481 21.5047 18.0262 21.4894 18.105 21.4895C18.2642 21.4898 18.4167 21.5533 18.5291 21.666C18.6414 21.7788 18.7044 21.9315 18.7041 22.0907C18.7039 22.2499 18.6404 22.4024 18.5276 22.5148C18.4149 22.6272 18.2621 22.6901 18.1029 22.6899ZM19.3837 25.2711C19.1454 25.2511 18.9248 25.1374 18.7703 24.9548C18.6158 24.7723 18.5401 24.5359 18.5598 24.2976C18.5811 24.0601 18.6956 23.8407 18.8782 23.6874C19.0608 23.5341 19.2967 23.4593 19.5343 23.4793C20.0277 23.5216 20.3954 23.9578 20.351 24.4502C20.3415 24.5676 20.309 24.6821 20.2552 24.7869C20.2014 24.8917 20.1275 24.9849 20.0376 25.0611C19.9478 25.1373 19.8437 25.195 19.7315 25.231C19.6193 25.2669 19.5011 25.2809 19.3837 25.2711ZM20.2479 21.6756C20.1301 21.6756 20.0134 21.6524 19.9046 21.6073C19.7957 21.5622 19.6968 21.4962 19.6135 21.4128C19.5302 21.3295 19.4641 21.2306 19.419 21.1218C19.3739 21.0129 19.3507 20.8963 19.3507 20.7784C19.3507 20.6606 19.3739 20.544 19.419 20.4351C19.4641 20.3263 19.5302 20.2273 19.6135 20.144C19.6968 20.0607 19.7957 19.9946 19.9046 19.9495C20.0134 19.9045 20.1301 19.8813 20.2479 19.8813C20.7403 19.8813 21.1415 20.2824 21.1415 20.7779C21.1415 21.2734 20.7403 21.6756 20.2479 21.6756ZM21.5231 23.5571C21.19 23.5571 20.9198 23.2901 20.9198 22.9564C20.9262 22.8013 20.9924 22.6546 21.1044 22.5471C21.2164 22.4396 21.3657 22.3796 21.521 22.3796C21.6763 22.3796 21.8255 22.4396 21.9376 22.5471C22.0496 22.6546 22.1158 22.8013 22.1222 22.9564C22.1222 23.2895 21.8546 23.5571 21.5231 23.5571ZM22.8637 20.071H22.6538V19.0001L22.8611 18.998C23.5043 18.996 24.1206 18.7399 24.576 18.2857C25.0313 17.8314 25.2887 17.2157 25.2923 16.5725C25.2887 15.9295 25.0314 15.3139 24.5763 14.8597C24.1212 14.4054 23.5051 14.1493 22.8621 14.147L22.6538 14.146V13.076H22.8637C24.7947 13.076 26.3643 14.6435 26.3643 16.5725C26.3643 18.5014 24.7947 20.071 22.8637 20.071Z" fill="url(#paint1_linear_156_99)"/>
</g>
<defs>
<linearGradient id="paint0_linear_156_99" x1="0.983658" y1="26.2173" x2="16.6986" y2="26.2173" gradientUnits="userSpaceOnUse">
<stop stop-color="#37B5A6"/>
<stop offset="1" stop-color="#0B7164"/>
</linearGradient>
<linearGradient id="paint1_linear_156_99" x1="6.85016" y1="17.0592" x2="33.0122" y2="17.0592" gradientUnits="userSpaceOnUse">
<stop stop-color="#37B5A6"/>
<stop offset="1" stop-color="#0B7164"/>
</linearGradient>
<clipPath id="clip0_156_99">
<rect width="33" height="33" fill="white" transform="translate(0.5 0.5)"/>
</clipPath>
</defs>
</svg>
