<svg width="40" height="32" viewBox="0 0 40 32" fill="none" xmlns="http://www.w3.org/2000/svg">
<path d="M30 20C26.6875 20 24 17.3125 24 14C24 10.75 26.6875 8 30 8C33.25 8 36 10.75 36 14C36 17.3125 33.25 20 30 20ZM33 22C36.8125 22 40 25.1875 40 29C40 29.0625 40 29.0625 40 29.0625C39.9375 30.6875 38.625 32 37 32H23C21.3125 32 20 30.6875 20 29.0625C19.9375 29.0625 20 29.0625 20 29C20 25.1875 23.125 22 27 22V22.0625C27.125 22.0625 27.25 22.0625 27.4375 22.125C28.1875 22.375 29.0625 22.5 30 22.5C30.875 22.5 31.75 22.375 32.5 22.125C32.6875 22.0625 32.8125 22 32.9375 22H33ZM20.5625 22.6875C19 24.3125 17.9375 26.5625 17.9375 29C17.9375 29 17.9375 29.0625 18 29.0625C18 30.1875 18.375 31.1875 19 32H1C0.4375 32 0 31.5625 0 31V8C0 6.9375 0.875 6 2 6H4V2C4 0.9375 4.875 0 6 0H16C17.0625 0 18 0.9375 18 2V6H20C21.0625 6 22 6.9375 22 8V21.5625C21.5 21.875 21 22.25 20.5625 22.6875ZM9 25.25V22.75C9 22.375 8.625 22 8.25 22H5.75C5.3125 22 5 22.375 5 22.75V25.25C5 25.6875 5.3125 26 5.75 26H8.25C8.625 26 9 25.6875 9 25.25ZM9 17.25V14.75C9 14.375 8.625 14 8.25 14H5.75C5.3125 14 5 14.375 5 14.75V17.25C5 17.6875 5.3125 18 5.75 18H8.25C8.625 18 9 17.6875 9 17.25ZM12 9.625V8H13.625C13.8125 8 14 7.875 14 7.625V6.375C14 6.1875 13.8125 6 13.625 6H12V4.375C12 4.1875 11.8125 4 11.625 4H10.375C10.125 4 10 4.1875 10 4.375V6H8.375C8.125 6 8 6.1875 8 6.375V7.625C8 7.875 8.125 8 8.375 8H10V9.625C10 9.875 10.125 10 10.375 10H11.625C11.8125 10 12 9.875 12 9.625ZM17 25.25V22.75C17 22.375 16.625 22 16.25 22H13.75C13.3125 22 13 22.375 13 22.75V25.25C13 25.6875 13.3125 26 13.75 26H16.25C16.625 26 17 25.6875 17 25.25ZM17 17.25V14.75C17 14.375 16.625 14 16.25 14H13.75C13.3125 14 13 14.375 13 14.75V17.25C13 17.6875 13.3125 18 13.75 18H16.25C16.625 18 17 17.6875 17 17.25Z" fill="url(#paint0_linear_411_66)"/>
<defs>
<linearGradient id="paint0_linear_411_66" x1="0" y1="16" x2="40" y2="16" gradientUnits="userSpaceOnUse">
<stop stop-color="#37B5A6"/>
<stop offset="1" stop-color="#0B7164"/>
</linearGradient>
</defs>
</svg>
