<svg width="44" height="38" viewBox="0 0 44 38" fill="none" xmlns="http://www.w3.org/2000/svg">
<g clip-path="url(#clip0_684_155)">
<path d="M43.4843 18.9629C43.4843 20.2988 42.3645 21.3453 41.0954 21.3453H38.7065L38.7588 33.2352C38.7737 35.8699 36.6312 38.0074 33.981 38.0074H10.0623C7.42703 38.0074 5.28449 35.8773 5.28449 33.2574V21.3527H2.8956C1.55185 21.3527 0.506714 20.3137 0.506714 18.9703C0.506714 18.3023 0.730672 17.7086 1.25324 17.1891L20.3867 0.59375C20.9093 0.0742187 21.5065 0 22.0291 0C22.5517 0 23.1489 0.148437 23.5968 0.519531L31.5548 7.47383V4.75C31.5548 3.43633 32.6223 2.375 33.9437 2.375H36.3326C37.6539 2.375 38.7215 3.43633 38.7215 4.75V13.7305L42.6631 17.1742C43.2604 17.6937 43.559 18.2875 43.4843 18.9555V18.9629ZM20.8048 14.25C20.1479 14.25 19.6104 14.7844 19.6104 15.4375V19H16.027C15.3701 19 14.8326 19.5344 14.8326 20.1875V22.5625C14.8326 23.2156 15.3701 23.75 16.027 23.75H19.6104V27.3125C19.6104 27.9656 20.1479 28.5 20.8048 28.5H23.1937C23.8506 28.5 24.3881 27.9656 24.3881 27.3125V23.75H27.9715C28.6284 23.75 29.1659 23.2156 29.1659 22.5625V20.1875C29.1659 19.5344 28.6284 19 27.9715 19H24.3881V15.4375C24.3881 14.7844 23.8506 14.25 23.1937 14.25H20.8048Z" fill="url(#paint0_linear_684_155)"/>
</g>
<defs>
<linearGradient id="paint0_linear_684_155" x1="0.506714" y1="19.0037" x2="43.4956" y2="19.0037" gradientUnits="userSpaceOnUse">
<stop stop-color="#37B5A6"/>
<stop offset="1" stop-color="#0B7164"/>
</linearGradient>
<clipPath id="clip0_684_155">
<rect width="43" height="38" fill="white" transform="translate(0.5)"/>
</clipPath>
</defs>
</svg>
