<svg width="44" height="44" viewBox="0 0 44 44" fill="none" xmlns="http://www.w3.org/2000/svg">
<g clip-path="url(#clip0_684_153)">
<path d="M4.08337 42.6042H39.9167M15.9908 27.375C16.8413 28.3256 17.9052 29.0607 19.0951 29.5202C20.285 29.9796 21.5669 30.1502 22.8355 30.0178C24.1042 29.8855 25.3233 29.4541 26.3928 28.759C27.4622 28.0639 28.3516 27.125 28.9876 26.0195C29.6237 24.9139 29.9884 23.6731 30.0517 22.3992C30.1151 21.1253 29.8752 19.8545 29.352 18.6913C28.8287 17.528 28.0369 16.5056 27.0417 15.7078C26.0464 14.9101 24.8761 14.3599 23.6269 14.1023M23.6269 14.1023L19.3125 18.4167L13.0417 12.1458L22.8421 2.34543C23.1433 2.04422 23.5008 1.80529 23.8943 1.64227C24.2878 1.47926 24.7095 1.39535 25.1355 1.39535C25.5614 1.39535 25.9831 1.47926 26.3766 1.64227C26.7701 1.80529 27.1276 2.04422 27.4288 2.34543L29.113 4.02959C29.4142 4.33073 29.6531 4.68826 29.8161 5.08176C29.9791 5.47525 30.063 5.897 30.063 6.32293C30.063 6.74885 29.9791 7.1706 29.8161 7.5641C29.6531 7.95759 29.4142 8.31512 29.113 8.61626L27.8373 9.89193M23.6269 14.1023L27.8373 9.89193M9.68054 27.375C10.4782 29.1973 11.6695 30.8203 13.1688 32.1276C14.6681 33.4348 16.4383 34.3939 18.3522 34.9359M18.3522 34.9359C19.3842 34.1 20.672 33.644 22 33.644C23.3281 33.644 24.6158 34.1 25.6479 34.9359M18.3522 34.9359C17.7075 35.4558 17.183 36.1092 16.815 36.8511L15.7292 39.0209C15.7292 39.0209 13.9375 42.6042 10.3542 42.6042H33.6459C30.0625 42.6042 28.2709 39.0209 28.2709 39.0209L27.1851 36.8511C26.8171 36.1092 26.2926 35.4558 25.6479 34.9359M12.1459 17.5208L14.8334 20.2083M4.08337 24.6875H20.2084M27.8373 9.89193C30.2943 11.0776 32.3324 12.9828 33.6809 15.3544C35.0293 17.726 35.6243 20.4518 35.3867 23.1696C35.1491 25.8874 34.0902 28.4685 32.3507 30.5702C30.6112 32.6719 28.2734 34.1945 25.6479 34.9359M28.2709 3.18751L30.2417 1.21667" stroke="url(#paint0_linear_684_153)"/>
</g>
<defs>
<linearGradient id="paint0_linear_684_153" x1="4.08337" y1="21.9104" x2="39.9167" y2="21.9104" gradientUnits="userSpaceOnUse">
<stop stop-color="#37B5A6"/>
<stop offset="1" stop-color="#0B7164"/>
</linearGradient>
<clipPath id="clip0_684_153">
<rect width="43" height="43" fill="white" transform="translate(0.5 0.5)"/>
</clipPath>
</defs>
</svg>
