<svg width="56" height="56" viewBox="0 0 56 56" fill="none" xmlns="http://www.w3.org/2000/svg">
<path fill-rule="evenodd" clip-rule="evenodd" d="M10.4743 9.74633C21.8717 6.08441 34.1299 6.08523 45.5268 9.74866C48.4237 10.6808 49.7035 13.888 48.6115 16.6028L41.1892 35.0478L41.1075 35.2508C40.8427 35.9158 40.5463 36.6578 40.0948 37.226C39.508 37.9657 38.7135 38.3763 37.6308 38.493C37.4769 38.5128 37.3206 38.5017 37.171 38.4603C37.0214 38.4189 36.8816 38.3482 36.7597 38.2521C36.6379 38.156 36.5364 38.0366 36.4612 37.9008C36.3861 37.765 36.3388 37.6156 36.3221 37.4613C36.3054 37.307 36.3197 37.1509 36.364 37.0022C36.4084 36.8535 36.482 36.7152 36.5805 36.5952C36.6791 36.4753 36.8005 36.3763 36.9378 36.3039C37.0751 36.2315 37.2254 36.1872 37.38 36.1737C37.9365 36.113 38.1243 35.9555 38.2678 35.7747C38.4965 35.4865 38.6668 35.063 39.004 34.2265L46.4473 15.7313C47.0797 14.1563 46.3038 12.4495 44.8128 11.97C33.8802 8.4558 22.1214 8.45498 11.1883 11.9677C9.69732 12.4472 8.92032 14.154 9.55382 15.729L16.9972 34.2347C17.3308 35.0653 17.5 35.4853 17.7275 35.7735C17.871 35.9543 18.0577 36.1118 18.6142 36.1713C18.9219 36.2049 19.2037 36.3593 19.3975 36.6007C19.5914 36.842 19.6814 37.1504 19.6478 37.4582C19.6143 37.7659 19.4598 38.0477 19.2185 38.2415C18.9772 38.4354 18.6687 38.5254 18.361 38.4918C17.2795 38.374 16.4862 37.9622 15.8993 37.2225C15.4502 36.6555 15.155 35.9158 14.8902 35.2508L14.8085 35.0455L7.38849 16.6005C6.29649 13.8845 7.57749 10.6773 10.4743 9.74633Z" fill="url(#paint0_linear_156_108)"/>
<path fill-rule="evenodd" clip-rule="evenodd" d="M21 30.9166L21.5833 33.25L23.3333 36.75V43.1666L27.4167 46.6666L32.6667 43.75V36.75L35 33.25V30.9166L28 29.1666L21 30.9166ZM29.1667 37.3333C29.1667 37.0239 29.0438 36.7271 28.825 36.5083C28.6062 36.2895 28.3094 36.1666 28 36.1666C27.6906 36.1666 27.3938 36.2895 27.175 36.5083C26.9562 36.7271 26.8333 37.0239 26.8333 37.3333V42C26.8333 42.3094 26.9562 42.6061 27.175 42.8249C27.3938 43.0437 27.6906 43.1666 28 43.1666C28.3094 43.1666 28.6062 43.0437 28.825 42.8249C29.0438 42.6061 29.1667 42.3094 29.1667 42V37.3333Z" fill="url(#paint1_linear_156_108)"/>
<path fill-rule="evenodd" clip-rule="evenodd" d="M22.1667 26.908V29.0162C22.2235 28.9929 22.2814 28.9707 22.3405 28.9497C23.6285 28.4655 25.5174 28 27.9989 28C30.4827 28 32.3715 28.4667 33.6595 28.9497L33.8334 29.0162V26.908C33.5113 26.7419 33.1798 26.5946 32.8405 26.467C31.7952 26.0762 30.184 25.6667 27.9989 25.6667C25.816 25.6667 24.2049 26.075 23.1595 26.467C22.7372 26.6257 22.407 26.782 22.1667 26.908ZM35.7 25.3167C35.8449 25.4254 35.9625 25.5663 36.0435 25.7283C36.1245 25.8903 36.1667 26.0689 36.1667 26.25V31.2539C36.1665 32.4053 35.8255 33.531 35.1867 34.489L34.4214 35.6382C34.038 36.2131 33.8335 36.8885 33.8334 37.5795V41.9755C33.8337 43.3203 33.3693 44.6238 32.5189 45.6656C31.6685 46.7073 30.4843 47.4232 29.1667 47.6922V47.8333C29.1666 48.0378 29.2207 48.2386 29.3235 48.4154C29.4262 48.5921 29.574 48.7385 29.7517 48.8396C29.9293 48.9407 30.1307 48.993 30.3351 48.991C30.5395 48.9891 30.7398 48.933 30.9155 48.8285L33.3865 47.362C34.5435 46.6749 35.9243 46.4702 37.2308 46.7921C38.5374 47.1141 39.665 47.9368 40.3702 49.0828L40.6607 49.5553C40.741 49.6859 40.7948 49.8309 40.819 49.9823C40.8432 50.1336 40.8374 50.2882 40.8019 50.4373C40.7663 50.5863 40.7018 50.7269 40.6119 50.8511C40.522 50.9752 40.4086 51.0804 40.278 51.1607C40.1475 51.241 40.0024 51.2947 39.8511 51.319C39.6998 51.3432 39.5452 51.3374 39.3961 51.3018C39.2471 51.2663 39.1064 51.2017 38.9823 51.1119C38.8582 51.022 38.753 50.9085 38.6727 50.778L38.3822 50.3067C37.998 49.6823 37.3838 49.2341 36.6721 49.0586C35.9603 48.8831 35.2081 48.9945 34.5777 49.3687L32.1067 50.8352C29.7792 52.2165 26.8334 50.54 26.8334 47.8333V47.6922C25.5158 47.4232 24.3316 46.7073 23.4812 45.6656C22.6308 44.6238 22.1664 43.3203 22.1667 41.9755V37.5795C22.1666 36.8885 21.962 36.2131 21.5787 35.6382L20.8134 34.489C20.1748 33.5313 19.8338 32.4061 19.8334 31.255V26.25C19.8334 26.0689 19.8755 25.8903 19.9565 25.7283C20.0375 25.5663 20.1551 25.4254 20.3 25.3167L20.3024 25.3155L20.3035 25.3132L20.3094 25.3097L20.321 25.3015C20.3691 25.2654 20.4185 25.2312 20.4692 25.1989C20.5988 25.1148 20.7311 25.035 20.8659 24.9597C21.3392 24.6964 21.8323 24.4702 22.3405 24.283C23.6285 23.7989 25.5174 23.3334 27.9989 23.3334C30.4827 23.3334 32.3715 23.8 33.6595 24.283C34.3024 24.5234 34.7947 24.7684 35.1342 24.9597C35.321 25.0652 35.5028 25.1793 35.679 25.3015L35.6907 25.3097L35.6965 25.3144L35.7 25.3167ZM21.693 31.8547L21.6965 31.8524H21.6989M21.693 31.8547L21.6989 31.8524L21.749 31.8162C21.8884 31.7257 22.0325 31.6428 22.1807 31.5677C22.2332 32.1496 22.4305 32.7091 22.7547 33.1952L23.52 34.3443C24.1586 35.302 24.4996 36.4273 24.5 37.5783V41.9743C24.5 42.9026 24.8688 43.7928 25.5252 44.4492C26.1815 45.1056 27.0718 45.4743 28 45.4743C28.9283 45.4743 29.8185 45.1056 30.4749 44.4492C31.1313 43.7928 31.5 42.9026 31.5 41.9743V37.5783C31.5002 36.4269 31.8412 35.3012 32.48 34.3432L33.2454 33.194C33.5696 32.7079 33.7669 32.1484 33.8194 31.5665C33.9662 31.6446 34.1102 31.7279 34.251 31.8162L34.307 31.8535H34.3047L34.3035 31.8512H34.3C34.3 31.8512 34.2989 31.8489 34.7457 31.2527L35 30.9167M33.8194 31.5677C33.5013 31.4044 33.1741 31.2595 32.8394 31.1337C31.7964 30.7429 30.1852 30.3334 28 30.3334C25.8149 30.3334 24.2049 30.7417 23.1595 31.1337C22.8252 31.2595 22.4984 31.4044 22.1807 31.5677M21.0117 19.8252C23.0345 18.3118 25.494 17.4958 28.0203 17.5C30.5466 17.5042 33.0033 18.3284 35.021 19.8485C35.1435 19.9408 35.2465 20.0562 35.3243 20.1882C35.4021 20.3203 35.4531 20.4664 35.4745 20.6182C35.4958 20.7699 35.4871 20.9244 35.4487 21.0728C35.4103 21.2212 35.3431 21.3606 35.2509 21.483C35.1586 21.6054 35.0432 21.7085 34.9111 21.7863C34.7791 21.8641 34.633 21.9151 34.4812 21.9365C34.3294 21.9578 34.175 21.949 34.0266 21.9107C33.8782 21.8723 33.7388 21.8051 33.6164 21.7129C32.0023 20.4967 30.0371 19.8372 28.0162 19.8336C25.9952 19.8301 24.0277 20.4825 22.4094 21.693C22.287 21.7884 22.1469 21.8585 21.9971 21.8991C21.8473 21.9397 21.691 21.95 21.5372 21.9294C21.3834 21.9088 21.2352 21.8578 21.1014 21.7793C20.9676 21.7007 20.8508 21.5963 20.7578 21.472C20.6648 21.3478 20.5976 21.2063 20.56 21.0557C20.5224 20.9052 20.5152 20.7486 20.5388 20.5953C20.5625 20.4419 20.6165 20.2948 20.6977 20.1626C20.7789 20.0304 20.8856 19.9157 21.0117 19.8252Z" fill="url(#paint2_linear_156_108)"/>
<path fill-rule="evenodd" clip-rule="evenodd" d="M21.749 14.077C24.7336 12.8405 28.0178 12.5167 31.1864 13.1468C34.355 13.7768 37.2656 15.3324 39.55 17.6167C39.6584 17.725 39.7444 17.8536 39.8031 17.9952C39.8618 18.1367 39.892 18.2885 39.8921 18.4417C39.8921 18.5949 39.862 18.7467 39.8034 18.8883C39.7448 19.0299 39.6589 19.1586 39.5506 19.267C39.4423 19.3753 39.3137 19.4613 39.1721 19.52C39.0306 19.5787 38.8788 19.609 38.7256 19.609C38.5723 19.6091 38.4206 19.5789 38.279 19.5204C38.1374 19.4618 38.0087 19.3759 37.9003 19.2675C35.2749 16.6422 31.714 15.1674 28.0012 15.1674C24.2883 15.1674 20.7275 16.6422 18.102 19.2675C17.8831 19.4866 17.5861 19.6097 17.2764 19.6098C16.9667 19.61 16.6697 19.487 16.4506 19.2681C16.2315 19.0492 16.1084 18.7522 16.1083 18.4425C16.1082 18.1328 16.2311 17.8358 16.45 17.6167C17.9668 16.1003 19.7674 14.8976 21.749 14.077Z" fill="url(#paint3_linear_156_108)"/>
<defs>
<linearGradient id="paint0_linear_156_108" x1="7.00183" y1="22.7515" x2="48.9983" y2="22.7515" gradientUnits="userSpaceOnUse">
<stop stop-color="#37B5A6"/>
<stop offset="1" stop-color="#0B7164"/>
</linearGradient>
<linearGradient id="paint1_linear_156_108" x1="21" y1="37.9166" x2="35" y2="37.9166" gradientUnits="userSpaceOnUse">
<stop stop-color="#37B5A6"/>
<stop offset="1" stop-color="#0B7164"/>
</linearGradient>
<linearGradient id="paint2_linear_156_108" x1="19.8334" y1="34.4168" x2="40.8337" y2="34.4168" gradientUnits="userSpaceOnUse">
<stop stop-color="#37B5A6"/>
<stop offset="1" stop-color="#0B7164"/>
</linearGradient>
<linearGradient id="paint3_linear_156_108" x1="16.1083" y1="16.2215" x2="39.8921" y2="16.2215" gradientUnits="userSpaceOnUse">
<stop stop-color="#37B5A6"/>
<stop offset="1" stop-color="#0B7164"/>
</linearGradient>
</defs>
</svg>
