<svg width="48" height="48" viewBox="0 0 48 48" fill="none" xmlns="http://www.w3.org/2000/svg">
<path d="M31.4775 7.19245C27.1612 5.60245 26.37 8.6587 26.2912 9.31871H26.2837V9.40496C26.28 9.45746 26.2762 9.4912 26.2762 9.4912H26.2837C26.7075 11.2575 27.0187 12.0675 31.095 11.8312C35.085 11.5987 35.2087 10.3575 35.2087 10.3575C35.2087 10.3575 35.5987 8.71121 31.4775 7.19245ZM28.7062 8.21245C28.7062 8.21245 29.2612 7.4212 30.1275 8.49745C30.1237 8.49745 29.34 9.26995 28.7062 8.21245ZM21.36 41.025C20.9512 41.2162 19.9612 41.6475 18.4575 42.1462C15.8175 43.02 19.05 43.0162 19.05 43.0162C19.05 43.0162 20.0025 42.9412 21.3862 42.5137L21.36 41.025ZM25.6312 16.3537L25.5712 19.815C27.33 19.9612 28.8 20.4675 29.2125 21.69C30.3225 24.9787 24.5137 25.3162 19.8037 26.88C14.8987 28.5075 15.435 34.6387 21.2662 35.7487L21.2175 32.9625C21.1575 32.9437 21.0975 32.9212 21.0412 32.9025C20.4412 32.6662 19.8862 32.2425 19.725 31.8262C19.5675 30.945 20.3175 29.6737 22.785 29.1112C27.2662 28.0837 31.05 27.42 32.175 25.2562C35.0287 19.7625 29.9775 16.4287 25.6312 16.3537Z" fill="url(#paint0_linear_684_148)"/>
<path d="M27.0525 7.63501C22.545 7.91251 14.2612 8.97751 12.7912 13.3275C10.9125 18.8963 16.3237 20.5688 18.975 20.235C19.5562 20.1638 20.2125 20.1188 20.9812 19.9763L20.925 16.7925C16.7137 16.9575 15.3112 15.6788 16.8937 13.9238C18.9 11.7 23.8087 11.1638 26.9212 11.055M25.6987 33.6263C25.5675 33.615 25.4475 33.6038 25.3237 33.5925L25.2787 36.0713C26.6325 36.375 26.145 37.1213 25.2787 38.2238C25.2675 38.2388 25.2525 38.2538 25.2412 38.2688L25.1962 40.71C25.5187 40.4963 25.8412 40.2675 26.1637 40.0125C27.2775 39.1275 27.5325 38.7563 28.2112 37.9275C29.2575 36.3413 29.2125 33.915 25.6987 33.6263Z" fill="url(#paint1_linear_684_148)"/>
<path d="M21.5137 12.4238L21.8062 25.425C22.7887 25.17 24.0074 24.84 24.7612 24.6338L25.0499 11.8688C24.1874 11.9513 22.8112 12.1163 21.5137 12.4238ZM23.6512 29.7075C23.6512 29.7075 22.4962 29.94 21.9149 30.1763L22.2524 45.1275C22.2524 45.9263 22.7137 46.5675 23.2762 46.5675C23.8387 46.5675 24.2999 46.0425 24.2999 45.1275L24.6524 29.4713L23.6512 29.7075ZM23.2199 1.72876C22.1212 1.72876 21.3937 2.62876 21.3937 3.73126V5.87251L21.4349 7.67626C22.0687 7.53751 23.2649 7.32001 25.1887 7.11751L25.2149 5.87626V3.73501C25.2187 2.62876 24.3187 1.72876 23.2199 1.72876Z" fill="url(#paint2_linear_684_148)"/>
<defs>
<linearGradient id="paint0_linear_684_148" x1="16.474" y1="24.8779" x2="35.2186" y2="24.8779" gradientUnits="userSpaceOnUse">
<stop stop-color="#37B5A6"/>
<stop offset="1" stop-color="#0B7164"/>
</linearGradient>
<linearGradient id="paint1_linear_684_148" x1="12.4031" y1="24.1725" x2="28.8069" y2="24.1725" gradientUnits="userSpaceOnUse">
<stop stop-color="#37B5A6"/>
<stop offset="1" stop-color="#0B7164"/>
</linearGradient>
<linearGradient id="paint2_linear_684_148" x1="21.3937" y1="24.1481" x2="25.2149" y2="24.1481" gradientUnits="userSpaceOnUse">
<stop stop-color="#37B5A6"/>
<stop offset="1" stop-color="#0B7164"/>
</linearGradient>
</defs>
</svg>
