<svg width="22" height="22" viewBox="0 0 22 22" fill="none" xmlns="http://www.w3.org/2000/svg">
<path d="M14.9999 13.8025C12.3389 16.6025 5.55148 9.87577 8.22247 7.06463C9.85351 5.34795 8.01137 3.38682 6.99141 1.94347C5.07706 -0.762114 0.876141 2.97348 1.0028 5.35017C1.40612 12.8458 9.51352 21.7281 17.3643 20.9525C19.8197 20.7103 22.6418 16.2747 19.8253 14.6536C18.4164 13.8425 16.4821 12.2425 14.9999 13.8014M13.2222 1.00013C15.2849 1.00013 17.2632 1.81958 18.7217 3.27821C20.1803 4.73684 20.9997 6.71517 20.9997 8.77798M13.2222 5.44461C14.1063 5.44461 14.9541 5.79581 15.5792 6.42094C16.2042 7.04606 16.5554 7.89392 16.5554 8.77798" stroke="white" stroke-width="1.5" stroke-linecap="round" stroke-linejoin="round"/>
</svg>
