<?xml version="1.0" encoding="UTF-8"?>
<svg id="Camada_2" data-name="Camada 2" xmlns="http://www.w3.org/2000/svg" viewBox="0 0 623.15 293.11">
  <defs>
    <style>
      .cls-1 {
        fill: #fff;
        fill-rule: evenodd;
      }

      .cls-2 {
        fill: #3abcac;
      }
    </style>
  </defs>
  <g id="Camada_1-2" data-name="Camada 1">
    <g>
      <path class="cls-1" d="M311.57,0c172.08,0,311.57,65.61,311.57,146.55s-139.5,146.55-311.57,146.55S0,227.49,0,146.55,139.5,0,311.57,0"/>
      <path class="cls-2" d="M97.96,110.76c8.55-22.17,50.06-29.17,76.06-25.99,12.02,1.47,19.45,4.38,20.24,16.37-22.16-4.93-38.32-7.72-61.59-2.59-16.73,3.69-35.95,12.6-36.32,30.42-.66,32.11,50.31,25.38,92.19,42.15-6.22-28.89-84.66-11.02-78.96-45.74,3.6-21.93,50.45-22.18,71.78-18.02,8.34,1.62,19.69,6.87,23.89,7.49l-.03-28.83c-24.65-18.29-111.85-14.93-107.27,24.74M472.35,139.71h31.91c-.43-5.61-1.87-9.76-4.38-12.47-2.72-2.9-6.57-4.36-11.59-4.36-4.57,0-8.33,1.46-11.24,4.36-2.94,2.92-4.49,7.07-4.7,12.47ZM509.9,164.01h15.65c-2.3,8.72-6.68,15.36-13.14,19.94-6.46,4.79-14.61,7.18-24.4,7.18-11.91,0-21.17-3.85-27.85-11.54-6.68-7.47-10.01-18.18-10.01-32.09s3.23-23.69,9.69-31.15c6.68-7.68,15.97-11.54,27.85-11.54,12.52,0,22.22,3.75,29.1,11.22,6.68,7.68,10.01,18.4,10.01,32.09v3.43c0,1.04-.11,1.78-.32,2.18h-54.12c.21,6.46,1.76,11.22,4.7,14.33,2.7,3.32,6.76,5,12.2,5,3.52,0,6.57-.72,9.05-2.18.64-.21,1.2-.58,1.74-1.09.51-.53,1.09-1.09,1.71-1.73.21-.61.99-1.44,2.35-2.47,1.36-1.04,3.28-1.57,5.79-1.57ZM450.14,189.55c-6.89.43-14.34.32-22.38-.32-8.04-.61-12.04-5.72-12.04-15.26v-91.58h11.27c2.7,0,5.1,1.04,7.18,3.11,2.08,2.07,3.12,4.57,3.12,7.47v14.04h12.84v4.36c0,3.11-1.04,5.64-3.12,7.63-2.08,1.97-4.59,2.95-7.53,2.95h-2.19v46.09c0,3.54,2.08,5.32,6.27,5.32h6.57v16.19ZM409.77,106.7v48.59c0,14.75-3.87,24.4-11.59,28.98-7.72,4.57-16.15,6.86-25.34,6.86-8.97-.43-17.17-2.92-24.57-7.5-7.4-4.57-11.11-14.01-11.11-28.34v-48.59h21.89v52.95c0,4.97,1.47,8.61,4.38,10.9,2.94,2.29,6.27,3.43,10.01,3.43s7.16-1.14,10.17-3.43c3.04-2.29,4.54-5.93,4.54-10.9v-42.37c0-2.9.99-5.4,2.96-7.47,2-2.07,4.54-3.11,7.69-3.11h10.95ZM311.5,82.4h11.27c2.91,0,5.42.98,7.5,2.95,2.08,1.97,3.12,4.41,3.12,7.31v96.89h-21.9v-107.15ZM284.91,82.4h11.27c2.91,0,5.42.98,7.5,2.95,2.08,1.97,3.12,4.41,3.12,7.31v96.89h-21.9v-107.15ZM265.5,186.13c-4.38,2.29-9.02,3.69-13.91,4.2-4.91.53-9.24.8-13,.8-7.5,0-14.07-2.05-19.71-6.09-.08-.06-.15-.11-.23-.17l-.07-.05c-.07-.05-.13-.1-.19-.15l-.03-.02h-.02c-.07-.07-.14-.12-.21-.18l-.06-.05c-.06-.05-.12-.1-.19-.15l-.05-.04c-.07-.06-.14-.12-.21-.18l-.06-.05-.17-.15-.05-.04c-.07-.06-.14-.12-.2-.18l-.06-.06-.16-.15-.05-.05c-.06-.06-.13-.12-.19-.19l-.02-.02-.03-.03-.16-.16-.07-.07c-.06-.06-.11-.12-.17-.18l-.02-.02h0s-.03-.03-.03-.03c-.05-.06-.11-.12-.16-.17l-.06-.07c-.05-.06-.1-.12-.16-.18l-.02-.03h-.01c-.06-.08-.12-.15-.18-.22l-.05-.06-.14-.17-.04-.04c-.06-.07-.12-.15-.17-.22l-.04-.06-.14-.18-.04-.06c-.05-.07-.11-.14-.16-.22l-.05-.07-.11-.16-.06-.08c-.05-.07-.1-.14-.15-.22l-.05-.08-.11-.16-.07-.1-.11-.17-.06-.1-.12-.2-.04-.07c-.05-.08-.09-.15-.14-.23v-.02s-.02-.01-.02-.01c-.05-.08-.09-.16-.13-.24l-.05-.09-.1-.19-.04-.08-.12-.23-.05-.11-.09-.18-.04-.07c-.04-.08-.08-.16-.12-.24l-.05-.11-.08-.18-.04-.09c-.04-.09-.08-.18-.12-.27l-.02-.04-.1-.23-.04-.1-.1-.24v-.02s-.01,0-.01,0l-.02-.05-.08-.22-.04-.1-.07-.2-.05-.14-.08-.21-.04-.13-.06-.18-.03-.09c-.03-.09-.06-.18-.09-.27l-.04-.13-.06-.18-.04-.12c-.03-.09-.05-.18-.08-.27l-.03-.11-.06-.21-.03-.09c-.03-.1-.05-.2-.08-.3l-.02-.08-.05-.22-.03-.13-.06-.25v-.04c-5.33,9.15-18.26,17.62-38.56,22.57-22.3,5.44-38.72,3.03-58.85-3.85,1.25,12.04,8.11,14.67,19.86,16.45,23.76,3.59,59.89.16,74.75-20.57,2.08-2.9,1.67-2.45,3.65-4.2.54,21.38-22.45,29.68-43.8,32.83-27.93,4.12-41.41-.14-63.95-8.65l.16-28.67c20.04,5.72,29.33,10.45,53.86,9.27,17.47-.84,39.19-5.55,41.73-20.62,5.92-35.11-69.9-16.02-79-44.64,20.78,7.48,34.02,7.9,55.97,12.42,18.8,3.87,30.33,11.24,34.81,19.66l.02-.07.06-.19.03-.09.08-.21.03-.09.09-.23.03-.08c.03-.07.06-.14.09-.22l.04-.1.06-.15.05-.13.07-.15.06-.14.08-.18.04-.09.09-.19.05-.1.08-.16.05-.1.1-.19.02-.03v-.02c.05-.07.08-.13.12-.2l.04-.08.11-.19.05-.08c.04-.06.07-.13.11-.19l.04-.07.1-.17.04-.07.11-.18.04-.07c.04-.07.08-.13.13-.2l.04-.06.13-.19.06-.08.1-.14.07-.09.11-.15.05-.06c.05-.06.09-.12.14-.19l.04-.05c.05-.06.09-.12.14-.18l.05-.07c.05-.06.1-.12.15-.18l.04-.05.14-.16.02-.03h0s0-.01,0-.01c.05-.06.1-.12.16-.18l.05-.05c.05-.06.1-.12.16-.17l.04-.05c.05-.06.11-.12.16-.18l.05-.05c.06-.06.11-.12.17-.18h0c.06-.06.12-.12.18-.18l.04-.04c.06-.06.12-.12.18-.18l.02-.02c.07-.06.13-.12.2-.19h.01c.06-.07.13-.13.2-.19h.02s.01-.03.01-.03c.14-.12.28-.24.42-.35l.03-.02c.06-.05.13-.1.19-.15l.05-.04c.07-.05.13-.1.2-.16h.02c.08-.07.15-.13.23-.18,5.1-3.75,11.62-6.22,19.55-7.47,1.04,0,2.3-.16,3.76-.48,1.47-.29,3.12-.56,4.99-.77,9.19-1.25,13.78-3.93,13.78-8.11,0-3.11-1.63-5.13-4.86-6.06-3.23-.93-6.19-1.41-8.92-1.41-2.91,0-5.53.43-7.82,1.25-2.3.82-3.95,2.39-4.99,4.68h-20.96c.83-6.46,3.74-11.75,8.76-15.9,5.63-4.78,13.67-7.18,24.08-7.18,11.69,0,20.45,1.99,26.3,5.93,6.03,4.15,9.05,9.97,9.05,17.44v28.36c0,8.29-1.5,14.78-4.54,19.46-3.02,4.68-6.62,8.05-10.79,10.13ZM260.5,147.82c-2.94,1.44-7,2.79-12.2,4.04-4.81,1.04-7.21,1.57-7.21,1.57-3.74,1.04-6.46,2.37-8.14,4.04-1.44,2.29-2.19,4.57-2.19,6.86,0,3.11.96,5.61,2.83,7.47,1.87,1.67,4.59,2.5,8.14,2.5,5.82,0,10.41-1.67,13.75-5,3.34-3.32,5.02-7.9,5.02-13.69v-7.79Z"/>
      <path class="cls-2" d="M508.87,212.47c-1.56,0-2.88-.54-3.94-1.63-1.06-1.09-1.6-2.43-1.6-4.04s.53-2.94,1.6-4.04c1.07-1.1,2.38-1.65,3.94-1.65s2.86.55,3.92,1.65c1.06,1.1,1.6,2.44,1.6,4.04s-.53,2.95-1.6,4.04c-1.07,1.09-2.37,1.63-3.92,1.63M508.87,199.59c-2.02,0-3.72.7-5.11,2.1-1.39,1.4-2.09,3.11-2.09,5.12s.7,3.73,2.09,5.12c1.39,1.4,3.09,2.1,5.11,2.1s3.7-.7,5.09-2.1c1.39-1.4,2.08-3.11,2.08-5.12s-.7-3.73-2.08-5.12c-1.39-1.4-3.09-2.1-5.09-2.1ZM486.55,212.26v-10.93h2.95c1.89,0,3.38.51,4.45,1.54,1.07,1.02,1.61,2.34,1.61,3.94s-.54,2.9-1.61,3.92c-1.07,1.02-2.56,1.54-4.45,1.54h-2.95ZM484.91,199.86v13.9h4.61c2.38,0,4.26-.65,5.63-1.96,1.38-1.31,2.06-2.97,2.06-4.99s-.69-3.7-2.06-5c-1.38-1.3-3.25-1.95-5.63-1.95h-4.61ZM479.66,212.26h-8.51v-4.75h7.88v-1.47h-7.88v-4.71h8.49v-1.47h-10.12v13.9h10.14v-1.49ZM463.71,199.86h-1.64v11.16l-9.09-11.16h-1.41v13.9h1.64v-11.04l9.09,11.04h1.41v-13.9ZM446.32,212.26h-8.51v-4.75h7.88v-1.47h-7.88v-4.71h8.49v-1.47h-10.12v13.9h10.14v-1.49ZM422.13,207.01v-5.68h4.42c.98,0,1.76.26,2.34.79.58.53.87,1.21.87,2.05s-.29,1.53-.87,2.05c-.58.53-1.36.79-2.34.79h-4.42ZM420.49,199.86v13.9h1.64v-5.27h4.42c1.47,0,2.64-.4,3.52-1.19.88-.8,1.32-1.84,1.32-3.12s-.44-2.33-1.32-3.12c-.88-.8-2.05-1.19-3.52-1.19h-6.06ZM407.09,208.76h-6.04l3.03-6.87,3.01,6.87ZM411.05,213.76l-6.22-13.9h-1.51l-6.22,13.9h1.76l1.56-3.53h7.32l1.56,3.53h1.76ZM387.31,212.49c-1.56,0-2.88-.55-3.95-1.65-1.07-1.1-1.61-2.44-1.61-4.04s.54-2.95,1.61-4.05c1.07-1.09,2.39-1.64,3.95-1.64,1.22,0,2.28.31,3.17.93.9.62,1.52,1.49,1.87,2.59l1.58-.46c-.43-1.4-1.24-2.51-2.44-3.35-1.2-.84-2.59-1.26-4.18-1.26-2.02,0-3.73.7-5.12,2.1-1.4,1.4-2.1,3.11-2.1,5.12s.7,3.73,2.1,5.12c1.4,1.4,3.11,2.1,5.12,2.1,1.6,0,3-.42,4.19-1.27s2-1.99,2.43-3.44l-1.58-.37c-.36,1.13-.99,2.01-1.88,2.62s-1.95.92-3.16.92ZM374.97,213.76v-13.9h-1.64v13.9h1.64ZM357.52,212.26v-10.93h2.95c1.89,0,3.38.51,4.45,1.54,1.07,1.02,1.61,2.34,1.61,3.94s-.54,2.9-1.61,3.92c-1.07,1.02-2.56,1.54-4.45,1.54h-2.95ZM355.88,199.86v13.9h4.61c2.38,0,4.26-.65,5.63-1.96,1.38-1.31,2.06-2.97,2.06-4.99s-.69-3.7-2.06-5c-1.38-1.3-3.25-1.95-5.63-1.95h-4.61ZM350.63,212.26h-8.51v-4.75h7.88v-1.47h-7.88v-4.71h8.49v-1.47h-10.12v13.9h10.15v-1.49ZM346.52,198.3l2.12-2.9h-1.85l-1.66,2.9h1.39ZM334.66,199.86h-1.43l-6.06,11.45-6.06-11.45h-1.43v13.9h1.58v-10.21l5.39,10.21h1.06l5.37-10.21v10.21h1.58v-13.9ZM306.27,208.76h-6.04l3.03-6.87,3.01,6.87ZM310.24,213.76l-6.22-13.9h-1.51l-6.22,13.9h1.76l1.56-3.53h7.32l1.56,3.53h1.76ZM286.5,212.49c-1.56,0-2.88-.55-3.95-1.65-1.07-1.1-1.61-2.44-1.61-4.04s.54-2.95,1.61-4.05c1.07-1.09,2.39-1.64,3.95-1.64,1.22,0,2.28.31,3.17.93.9.62,1.52,1.49,1.87,2.59l1.58-.46c-.43-1.4-1.24-2.51-2.44-3.35-1.2-.84-2.59-1.26-4.18-1.26-2.02,0-3.73.7-5.12,2.1-1.4,1.4-2.1,3.11-2.1,5.12s.7,3.73,2.1,5.12c1.4,1.4,3.11,2.1,5.12,2.1,1.6,0,3-.42,4.19-1.27,1.19-.84,2-1.99,2.43-3.44l-1.58-.37c-.36,1.13-.99,2.01-1.88,2.62s-1.95.92-3.16.92ZM274.16,213.76v-13.9h-1.64v13.9h1.64ZM266.71,199.86h-1.64v11.16l-9.09-11.16h-1.41v13.9h1.64v-11.04l9.09,11.04h1.41v-13.9ZM248.76,213.76v-13.9h-1.64v13.9h1.64ZM248.74,198.3l2.12-2.9h-1.85l-1.66,2.9h1.39ZM242.39,212.26h-7.97v-12.41h-1.64v13.9h9.61v-1.49ZM221.02,212.49c-1.56,0-2.88-.55-3.95-1.65-1.07-1.1-1.61-2.44-1.61-4.04s.54-2.95,1.61-4.05c1.07-1.09,2.39-1.64,3.95-1.64,1.22,0,2.28.31,3.17.93.9.62,1.52,1.49,1.87,2.59l1.58-.46c-.43-1.4-1.24-2.51-2.44-3.35-1.2-.84-2.59-1.26-4.18-1.26-2.02,0-3.73.7-5.12,2.1-1.4,1.4-2.1,3.11-2.1,5.12s.7,3.73,2.1,5.12c1.4,1.4,3.11,2.1,5.12,2.1,1.6,0,3-.42,4.19-1.27,1.19-.84,2-1.99,2.43-3.44l-1.58-.37c-.36,1.13-.99,2.01-1.88,2.62-.89.62-1.95.92-3.16.92Z"/>
    </g>
  </g>
</svg>