<svg width="24" height="25" viewBox="0 0 24 25" fill="none" xmlns="http://www.w3.org/2000/svg">
<path d="M10.875 6.125C10.875 5.51562 11.3438 5 12 5C12.6094 5 13.125 5.51562 13.125 6.125V11.9375L17.1094 14.5625C17.625 14.9375 17.7656 15.6406 17.3906 16.1562C17.0625 16.6719 16.3594 16.8125 15.8438 16.4375L11.3438 13.4375C11.0625 13.25 10.875 12.875 10.875 12.5V6.125ZM12 0.5C18.6094 0.5 24 5.89062 24 12.5C24 19.1562 18.6094 24.5 12 24.5C5.34375 24.5 0 19.1562 0 12.5C0 5.89062 5.34375 0.5 12 0.5ZM2.25 12.5C2.25 17.8906 6.60938 22.25 12 22.25C17.3438 22.25 21.75 17.8906 21.75 12.5C21.75 7.15625 17.3438 2.75 12 2.75C6.60938 2.75 2.25 7.15625 2.25 12.5Z" fill="#FAFAFA"/>
</svg>
